<svg id="visual" viewBox="0 0 900 600" width="900" height="600" xmlns="http://www.w3.org/2000/svg" xmlns:xlink="http://www.w3.org/1999/xlink" version="1.1"><rect x="0" y="0" width="900" height="600" fill="#01255c"></rect><path d="M0 383L18.8 380.3C37.7 377.7 75.3 372.3 112.8 372.8C150.3 373.3 187.7 379.7 225.2 379.2C262.7 378.7 300.3 371.3 337.8 364C375.3 356.7 412.7 349.3 450.2 350.5C487.7 351.7 525.3 361.3 562.8 368.3C600.3 375.3 637.7 379.7 675.2 383C712.7 386.3 750.3 388.7 787.8 384.3C825.3 380 862.7 369 881.3 363.5L900 358L900 601L881.3 601C862.7 601 825.3 601 787.8 601C750.3 601 712.7 601 675.2 601C637.7 601 600.3 601 562.8 601C525.3 601 487.7 601 450.2 601C412.7 601 375.3 601 337.8 601C300.3 601 262.7 601 225.2 601C187.7 601 150.3 601 112.8 601C75.3 601 37.7 601 18.8 601L0 601Z" fill="#2495c7"></path><path d="M0 371L18.8 374.5C37.7 378 75.3 385 112.8 392.5C150.3 400 187.7 408 225.2 406.8C262.7 405.7 300.3 395.3 337.8 397.2C375.3 399 412.7 413 450.2 418.5C487.7 424 525.3 421 562.8 417.8C600.3 414.7 637.7 411.3 675.2 403.7C712.7 396 750.3 384 787.8 381.3C825.3 378.7 862.7 385.3 881.3 388.7L900 392L900 601L881.3 601C862.7 601 825.3 601 787.8 601C750.3 601 712.7 601 675.2 601C637.7 601 600.3 601 562.8 601C525.3 601 487.7 601 450.2 601C412.7 601 375.3 601 337.8 601C300.3 601 262.7 601 225.2 601C187.7 601 150.3 601 112.8 601C75.3 601 37.7 601 18.8 601L0 601Z" fill="#309ace"></path><path d="M0 437L18.8 435.2C37.7 433.3 75.3 429.7 112.8 428.7C150.3 427.7 187.7 429.3 225.2 426.5C262.7 423.7 300.3 416.3 337.8 412.8C375.3 409.3 412.7 409.7 450.2 411.7C487.7 413.7 525.3 417.3 562.8 417.3C600.3 417.3 637.7 413.7 675.2 413.7C712.7 413.7 750.3 417.3 787.8 420C825.3 422.7 862.7 424.3 881.3 425.2L900 426L900 601L881.3 601C862.7 601 825.3 601 787.8 601C750.3 601 712.7 601 675.2 601C637.7 601 600.3 601 562.8 601C525.3 601 487.7 601 450.2 601C412.7 601 375.3 601 337.8 601C300.3 601 262.7 601 225.2 601C187.7 601 150.3 601 112.8 601C75.3 601 37.7 601 18.8 601L0 601Z" fill="#3a9fd6"></path><path d="M0 455L18.8 456.5C37.7 458 75.3 461 112.8 462.7C150.3 464.3 187.7 464.7 225.2 459.2C262.7 453.7 300.3 442.3 337.8 444.2C375.3 446 412.7 461 450.2 460.8C487.7 460.7 525.3 445.3 562.8 438C600.3 430.7 637.7 431.3 675.2 433C712.7 434.7 750.3 437.3 787.8 436.5C825.3 435.7 862.7 431.3 881.3 429.2L900 427L900 601L881.3 601C862.7 601 825.3 601 787.8 601C750.3 601 712.7 601 675.2 601C637.7 601 600.3 601 562.8 601C525.3 601 487.7 601 450.2 601C412.7 601 375.3 601 337.8 601C300.3 601 262.7 601 225.2 601C187.7 601 150.3 601 112.8 601C75.3 601 37.7 601 18.8 601L0 601Z" fill="#44a4dd"></path><path d="M0 467L18.8 473.2C37.7 479.3 75.3 491.7 112.8 493.7C150.3 495.7 187.7 487.3 225.2 479.5C262.7 471.7 300.3 464.3 337.8 462.3C375.3 460.3 412.7 463.7 450.2 470.8C487.7 478 525.3 489 562.8 488.5C600.3 488 637.7 476 675.2 469.2C712.7 462.3 750.3 460.7 787.8 460.5C825.3 460.3 862.7 461.7 881.3 462.3L900 463L900 601L881.3 601C862.7 601 825.3 601 787.8 601C750.3 601 712.7 601 675.2 601C637.7 601 600.3 601 562.8 601C525.3 601 487.7 601 450.2 601C412.7 601 375.3 601 337.8 601C300.3 601 262.7 601 225.2 601C187.7 601 150.3 601 112.8 601C75.3 601 37.7 601 18.8 601L0 601Z" fill="#4ea9e5"></path><path d="M0 495L18.8 496.7C37.7 498.3 75.3 501.7 112.8 502.3C150.3 503 187.7 501 225.2 503.3C262.7 505.7 300.3 512.3 337.8 514.5C375.3 516.7 412.7 514.3 450.2 511C487.7 507.7 525.3 503.3 562.8 500.7C600.3 498 637.7 497 675.2 497.5C712.7 498 750.3 500 787.8 500.5C825.3 501 862.7 500 881.3 499.5L900 499L900 601L881.3 601C862.7 601 825.3 601 787.8 601C750.3 601 712.7 601 675.2 601C637.7 601 600.3 601 562.8 601C525.3 601 487.7 601 450.2 601C412.7 601 375.3 601 337.8 601C300.3 601 262.7 601 225.2 601C187.7 601 150.3 601 112.8 601C75.3 601 37.7 601 18.8 601L0 601Z" fill="#57aeec"></path><path d="M0 524L18.8 528.8C37.7 533.7 75.3 543.3 112.8 543.3C150.3 543.3 187.7 533.7 225.2 532.7C262.7 531.7 300.3 539.3 337.8 542.8C375.3 546.3 412.7 545.7 450.2 542.3C487.7 539 525.3 533 562.8 531.7C600.3 530.3 637.7 533.7 675.2 535C712.7 536.3 750.3 535.7 787.8 534.3C825.3 533 862.7 531 881.3 530L900 529L900 601L881.3 601C862.7 601 825.3 601 787.8 601C750.3 601 712.7 601 675.2 601C637.7 601 600.3 601 562.8 601C525.3 601 487.7 601 450.2 601C412.7 601 375.3 601 337.8 601C300.3 601 262.7 601 225.2 601C187.7 601 150.3 601 112.8 601C75.3 601 37.7 601 18.8 601L0 601Z" fill="#60b3f3"></path><path d="M0 578L18.8 577.2C37.7 576.3 75.3 574.7 112.8 574.5C150.3 574.3 187.7 575.7 225.2 573.2C262.7 570.7 300.3 564.3 337.8 561.8C375.3 559.3 412.7 560.7 450.2 564.7C487.7 568.7 525.3 575.3 562.8 578.5C600.3 581.7 637.7 581.3 675.2 580.8C712.7 580.3 750.3 579.7 787.8 577.7C825.3 575.7 862.7 572.3 881.3 570.7L900 569L900 601L881.3 601C862.7 601 825.3 601 787.8 601C750.3 601 712.7 601 675.2 601C637.7 601 600.3 601 562.8 601C525.3 601 487.7 601 450.2 601C412.7 601 375.3 601 337.8 601C300.3 601 262.7 601 225.2 601C187.7 601 150.3 601 112.8 601C75.3 601 37.7 601 18.8 601L0 601Z" fill="#69b8fa"></path></svg>