<svg id="visual" viewBox="0 0 900 600" width="900" height="600" xmlns="http://www.w3.org/2000/svg" xmlns:xlink="http://www.w3.org/1999/xlink" version="1.1"><path d="M0 61L12.5 64C25 67 50 73 75 76C100 79 125 79 150 79C175 79 200 79 225 78C250 77 275 75 300 76C325 77 350 81 375 79C400 77 425 69 450 66C475 63 500 65 525 67C550 69 575 71 600 73C625 75 650 77 675 79C700 81 725 83 750 84C775 85 800 85 825 81C850 77 875 69 887.5 65L900 61L900 0L887.5 0C875 0 850 0 825 0C800 0 775 0 750 0C725 0 700 0 675 0C650 0 625 0 600 0C575 0 550 0 525 0C500 0 475 0 450 0C425 0 400 0 375 0C350 0 325 0 300 0C275 0 250 0 225 0C200 0 175 0 150 0C125 0 100 0 75 0C50 0 25 0 12.5 0L0 0Z" fill="#60cef1"></path><path d="M0 145L12.5 145C25 145 50 145 75 147C100 149 125 153 150 154C175 155 200 153 225 151C250 149 275 147 300 148C325 149 350 153 375 153C400 153 425 149 450 146C475 143 500 141 525 144C550 147 575 155 600 157C625 159 650 155 675 158C700 161 725 171 750 171C775 171 800 161 825 157C850 153 875 155 887.5 156L900 157L900 59L887.5 63C875 67 850 75 825 79C800 83 775 83 750 82C725 81 700 79 675 77C650 75 625 73 600 71C575 69 550 67 525 65C500 63 475 61 450 64C425 67 400 75 375 77C350 79 325 75 300 74C275 73 250 75 225 76C200 77 175 77 150 77C125 77 100 77 75 74C50 71 25 65 12.5 62L0 59Z" fill="#2fa1d0"></path><path d="M0 337L12.5 337C25 337 50 337 75 335C100 333 125 329 150 325C175 321 200 317 225 314C250 311 275 309 300 315C325 321 350 335 375 336C400 337 425 325 450 318C475 311 500 309 525 311C550 313 575 319 600 322C625 325 650 325 675 326C700 327 725 329 750 332C775 335 800 339 825 339C850 339 875 335 887.5 333L900 331L900 155L887.5 154C875 153 850 151 825 155C800 159 775 169 750 169C725 169 700 159 675 156C650 153 625 157 600 155C575 153 550 145 525 142C500 139 475 141 450 144C425 147 400 151 375 151C350 151 325 147 300 146C275 145 250 147 225 149C200 151 175 153 150 152C125 151 100 147 75 145C50 143 25 143 12.5 143L0 143Z" fill="#0986bc"></path><path d="M0 445L12.5 444C25 443 50 441 75 442C100 443 125 447 150 447C175 447 200 443 225 438C250 433 275 427 300 433C325 439 350 457 375 457C400 457 425 439 450 431C475 423 500 425 525 426C550 427 575 427 600 430C625 433 650 439 675 439C700 439 725 433 750 431C775 429 800 431 825 430C850 429 875 425 887.5 423L900 421L900 329L887.5 331C875 333 850 337 825 337C800 337 775 333 750 330C725 327 700 325 675 324C650 323 625 323 600 320C575 317 550 311 525 309C500 307 475 309 450 316C425 323 400 335 375 334C350 333 325 319 300 313C275 307 250 309 225 312C200 315 175 319 150 323C125 327 100 331 75 333C50 335 25 335 12.5 335L0 335Z" fill="#2fa1d0"></path><path d="M0 601L12.5 601C25 601 50 601 75 601C100 601 125 601 150 601C175 601 200 601 225 601C250 601 275 601 300 601C325 601 350 601 375 601C400 601 425 601 450 601C475 601 500 601 525 601C550 601 575 601 600 601C625 601 650 601 675 601C700 601 725 601 750 601C775 601 800 601 825 601C850 601 875 601 887.5 601L900 601L900 419L887.5 421C875 423 850 427 825 428C800 429 775 427 750 429C725 431 700 437 675 437C650 437 625 431 600 428C575 425 550 425 525 424C500 423 475 421 450 429C425 437 400 455 375 455C350 455 325 437 300 431C275 425 250 431 225 436C200 441 175 445 150 445C125 445 100 441 75 440C50 439 25 441 12.5 442L0 443Z" fill="#60cef1"></path></svg>